name GIL04_slow3.mot
datacolumns 153
datarows 4
range 0.69999999 0.72500002
endheader

                time	           pelvis_tx	           pelvis_ty	           pelvis_tz	         pelvis_tilt	         pelvis_list	     pelvis_rotation	       hip_flexion_r	     hip_adduction_r	      hip_rotation_r	        knee_angle_r	       ankle_angle_r	    subtalar_angle_r	         mtp_angle_r	       hip_flexion_l	     hip_adduction_l	      hip_rotation_l	        knee_angle_l	       ankle_angle_l	    subtalar_angle_l	         mtp_angle_l	    lumbar_extension	      lumbar_bending	     lumbar_rotation	     ground_force_vx	     ground_force_vy	     ground_force_vz	     ground_force_px	     ground_force_py	     ground_force_pz	     ground_force_vx	     ground_force_vy	     ground_force_vz	     ground_force_px	     ground_force_py	     ground_force_pz	     ground_torque_x	     ground_torque_y	     ground_torque_z	     ground_torque_x	     ground_torque_y	     ground_torque_z	    ground_marker_px	    ground_marker_py	    ground_marker_pz	    ground_marker_px	    ground_marker_py	    ground_marker_pz	    ground_marker_px	    ground_marker_py	    ground_marker_pz	    ground_marker_px	    ground_marker_py	    ground_marker_pz	    ground_marker_px	    ground_marker_py	    ground_marker_pz	    ground_marker_px	    ground_marker_py	    ground_marker_pz	    ground_marker_px	    ground_marker_py	    ground_marker_pz	    ground_marker_px	    ground_marker_py	    ground_marker_pz	    ground_marker_px	    ground_marker_py	    ground_marker_pz	    ground_marker_px	    ground_marker_py	    ground_marker_pz	    ground_marker_px	    ground_marker_py	    ground_marker_pz	    ground_marker_px	    ground_marker_py	    ground_marker_pz	    ground_marker_px	    ground_marker_py	    ground_marker_pz	    ground_marker_px	    ground_marker_py	    ground_marker_pz	    ground_marker_px	    ground_marker_py	    ground_marker_pz	    ground_marker_px	    ground_marker_py	    ground_marker_pz	    ground_marker_px	    ground_marker_py	    ground_marker_pz	    ground_marker_px	    ground_marker_py	    ground_marker_pz	    ground_marker_px	    ground_marker_py	    ground_marker_pz	    ground_marker_px	    ground_marker_py	    ground_marker_pz	    ground_marker_px	    ground_marker_py	    ground_marker_pz	    ground_marker_px	    ground_marker_py	    ground_marker_pz	    ground_marker_px	    ground_marker_py	    ground_marker_pz	    ground_marker_px	    ground_marker_py	    ground_marker_pz	    ground_marker_px	    ground_marker_py	    ground_marker_pz	    ground_marker_px	    ground_marker_py	    ground_marker_pz	    ground_marker_px	    ground_marker_py	    ground_marker_pz	    ground_marker_px	    ground_marker_py	    ground_marker_pz	    ground_marker_px	    ground_marker_py	    ground_marker_pz	    ground_marker_px	    ground_marker_py	    ground_marker_pz	    ground_marker_px	    ground_marker_py	    ground_marker_pz	    ground_marker_px	    ground_marker_py	    ground_marker_pz	    ground_marker_px	    ground_marker_py	    ground_marker_pz	    ground_marker_px	    ground_marker_py	    ground_marker_pz	    ground_marker_px	    ground_marker_py	    ground_marker_pz	    ground_marker_px	    ground_marker_py	    ground_marker_pz	    ground_marker_px	    ground_marker_py	    ground_marker_pz	
          0.69999999	          0.64255077	          0.73518217	         -0.24689379	         -3.74673939	          3.02644682	          0.89551246	        -11.65556812	         -1.66793275	         -0.27608970	        -27.04041481	         -6.81536055	          0.00000000	          0.00000000	         21.18761444	          7.28574228	         -5.19747591	         -0.75867695	        -14.24316120	          0.00000000	          0.00000000	        -12.26029015	         -5.32261038	          2.43350053	         11.53621583	         47.66250415	          4.11807324	          0.33384457	          0.00000000	         -0.20859827	        -40.07881694	        266.93833269	          7.32746243	          0.73845148	          0.00000000	         -0.29116980	          0.00000000	         -0.00168439	          0.00000000	          0.00000000	          0.08772952	          0.00000000	          0.58119828	          0.66762769	         -0.25395033	          0.57497346	          0.67035437	         -0.18740956	          0.57488334	          0.67728138	         -0.31304762	          0.49165559	          0.36738178	         -0.19489160	          0.66962826	          0.37444907	         -0.28939891	          0.26888058	          0.12313789	         -0.18569055	          0.76061058	          0.06224198	         -0.29309696	          0.64255077	          0.73518217	         -0.24689379	          0.64261872	          0.72995782	         -0.15213759	          0.64248282	          0.74040645	         -0.34164998	          0.49964717	          0.77823836	         -0.22648254	          0.49518988	          0.77473676	         -0.28124291	          0.49184692	          0.36608246	         -0.14440867	          0.66716725	          0.36979625	         -0.33912107	          0.49778193	          0.35868081	         -0.24502310	          0.68286133	          0.37642828	         -0.23347077	          0.26388568	          0.12892245	         -0.15307400	          0.75024146	          0.05960874	         -0.32589629	          0.27282822	          0.13277163	         -0.21238451	          0.75753963	          0.06707796	         -0.26458710	          0.54291391	          1.12386668	         -0.26103878	          0.62627989	          1.08031166	         -0.19796786	          0.61763465	          1.07732141	         -0.32765976	          0.61629725	          1.06716990	         -0.26487914	          0.63649297	          0.92474937	         -0.26205906	          0.51706022	          0.45158249	         -0.06574087	          0.76519245	          0.50720215	         -0.33922601	          0.56555432	          0.50208783	         -0.13267954	          0.68195432	          0.54791480	         -0.28439760	          0.55719745	          0.41941923	         -0.14770199	          0.70133471	          0.46440893	         -0.26957819	          0.32265690	          0.21974410	         -0.08234495	          0.80734450	          0.18057385	         -0.34360954	          0.36685434	          0.24887890	         -0.14276336	          0.73851526	          0.21963698	         -0.31507042	          0.31626451	          0.04300489	         -0.19526021	          0.85251367	          0.04561755	         -0.30939096	
          0.70833331	          0.65055156	          0.73615217	         -0.24813397	         -3.89571571	          3.29150152	          0.94681764	        -10.38768959	         -2.40683460	         -0.57325405	        -29.38946724	         -9.24362087	          0.00000000	          0.00000000	         20.92777634	          7.60703135	         -5.33654499	         -1.23355508	        -13.96905136	          0.00000000	          0.00000000	        -12.01640224	         -5.65179348	          2.57450676	          7.10697990	         34.91967300	          3.23844290	          0.33729657	          0.00000000	         -0.20940062	        -41.91991148	        274.50448556	         13.00725030	          0.74106104	          0.00000000	         -0.29232120	          0.00000000	         -0.04111282	          0.00000000	          0.00000000	          0.00210016	          0.00000000	          0.58921504	          0.66875982	         -0.25536832	          0.58278501	          0.67121851	         -0.18898146	          0.58276373	          0.67873544	         -0.31458563	          0.50522071	          0.36569813	         -0.19398972	          0.67518944	          0.37558219	         -0.29059383	          0.27787137	          0.12703191	         -0.18468443	          0.76137096	          0.06187349	         -0.29310483	          0.65055156	          0.73615217	         -0.24813397	          0.65056765	          0.73048002	         -0.15335467	          0.65053552	          0.74182427	         -0.34291327	          0.50780404	          0.77942753	         -0.22680965	          0.50309122	          0.77624363	         -0.28154129	          0.50526184	          0.36486000	         -0.14349671	          0.67266870	          0.37087920	         -0.34030831	          0.51237965	          0.35551152	         -0.24333513	          0.68868351	          0.37708801	         -0.23612496	          0.27284700	          0.13308764	         -0.15212168	          0.75123435	          0.05935197	         -0.32598552	          0.28164694	          0.13653080	         -0.21107624	          0.75858188	          0.06690740	         -0.26490769	          0.55160737	          1.12520540	         -0.26235467	          0.63546783	          1.08168805	         -0.19969635	          0.62643701	          1.07866967	         -0.32890087	          0.62519640	          1.06854570	         -0.26632312	          0.64577502	          0.92613894	         -0.26356512	          0.52845085	          0.45128006	         -0.06556560	          0.77185553	          0.50756896	         -0.34069830	          0.57695526	          0.50169408	         -0.13260114	          0.68962944	          0.54875290	         -0.28636229	          0.56991905	          0.41856024	         -0.14641176	          0.70810425	          0.46503466	         -0.27187490	          0.33319446	          0.22299874	         -0.08145184	          0.81036645	          0.17945246	         -0.34340844	          0.37870410	          0.25012478	         -0.14170438	          0.74196458	          0.21934520	         -0.31601563	          0.32010707	          0.04437145	         -0.19497475	          0.85321069	          0.04419870	         -0.30906838	
          0.71666664	          0.65835035	          0.73712069	         -0.24927235	         -4.04728699	          3.49958634	          0.94442421	         -9.00782204	         -3.06641006	         -0.79853451	        -31.81800270	        -11.65805149	          0.00000000	          0.00000000	         20.66834259	          7.84420919	         -5.63209438	         -1.67646241	        -13.57786846	          0.00000000	          0.00000000	        -11.86811352	         -5.81896067	          2.72905684	          4.11992815	         25.23265554	          2.36909596	          0.33980490	          0.00000000	         -0.20971884	        -43.36193368	        285.06581010	         17.62127171	          0.74353491	          0.00000000	         -0.29324277	          0.00000000	         -0.06411160	          0.00000000	          0.00000000	          0.00333765	          0.00000000	          0.59695554	          0.66988361	         -0.25666273	          0.59035045	          0.67216146	         -0.19041643	          0.59048021	          0.68011522	         -0.31599361	          0.51917750	          0.36410069	         -0.19305405	          0.68056524	          0.37663355	         -0.29170310	          0.28756052	          0.13102587	         -0.18368290	          0.76199633	          0.06154278	         -0.29307514	          0.65835035	          0.73712069	         -0.24927235	          0.65825242	          0.73111635	         -0.15447415	          0.65844828	          0.74312502	         -0.34407055	          0.51570761	          0.78064585	         -0.22733150	          0.51089978	          0.77772588	         -0.28203148	          0.51904851	          0.36369812	         -0.14255582	          0.67786086	          0.37185302	         -0.34140050	          0.52726144	          0.35257825	         -0.24176139	          0.69365561	          0.37718457	         -0.23932952	          0.28254369	          0.13731878	         -0.15116398	          0.75210387	          0.05912974	         -0.32603824	          0.29103884	          0.14051482	         -0.20978869	          0.75903946	          0.06677635	         -0.26538393	          0.56038195	          1.12659001	         -0.26350290	          0.64445716	          1.08277822	         -0.20176582	          0.63520199	          1.07995725	         -0.33015993	          0.63404334	          1.06985557	         -0.26774931	          0.65447772	          0.92731017	         -0.26546320	          0.54001701	          0.45097122	         -0.06534164	          0.77821946	          0.50757188	         -0.34235793	          0.58831555	          0.50137699	         -0.13243228	          0.69708514	          0.54902709	         -0.28886381	          0.58280665	          0.41783795	         -0.14519010	          0.71438408	          0.46500063	         -0.27465144	          0.34442958	          0.22619420	         -0.08052578	          0.81318516	          0.17838457	         -0.34310797	          0.39083222	          0.25160259	         -0.14059080	          0.74510819	          0.21917649	         -0.31661069	          0.32465202	          0.04609121	         -0.19458382	          0.85379130	          0.04303228	         -0.30875325	
          0.72500002	          0.66595465	          0.73807615	         -0.25029102	         -4.20297050	          3.64253521	          0.89407575	         -7.52054787	         -3.62177706	         -0.97890961	        -34.31283188	        -13.93321133	          0.00000000	          0.00000000	         20.39890671	          7.99785852	         -6.02551699	         -2.06590867	        -13.10477734	          0.00000000	          0.00000000	        -11.76767635	         -5.99732304	          2.85105205	          2.18877078	         17.51820153	          1.60427283	          0.34164990	          0.00000000	         -0.20931313	        -43.57023894	        296.83418322	         20.23193911	          0.74548297	          0.00000000	         -0.29375150	          0.00000000	         -0.07174350	          0.00000000	          0.00000000	          0.09600452	          0.00000000	          0.60441089	          0.67099053	         -0.25780195	          0.59768456	          0.67317933	         -0.19167952	          0.59802955	          0.68140280	         -0.31723893	          0.53351289	          0.36266112	         -0.19212028	          0.68568903	          0.37758407	         -0.29267287	          0.29790705	          0.13512066	         -0.18272378	          0.76250094	          0.06125922	         -0.29298311	          0.66595465	          0.73807615	         -0.25029102	          0.66569418	          0.73186648	         -0.15547927	          0.66621512	          0.74428582	         -0.34510276	          0.52337426	          0.78188753	         -0.22805713	          0.51862913	          0.77918303	         -0.28273034	          0.53317612	          0.36265907	         -0.14162141	          0.68271822	          0.37271047	         -0.34234604	          0.54260832	          0.34979701	         -0.24021134	          0.69877249	          0.37723902	         -0.24149081	          0.29294485	          0.14160047	         -0.15023318	          0.75286222	          0.05895110	         -0.32602879	          0.30116308	          0.14479379	         -0.20861477	          0.75914234	          0.06660722	         -0.26574662	          0.56914949	          1.12796843	         -0.26457387	          0.65329689	          1.08400977	         -0.20351371	          0.64391440	          1.08117259	         -0.33143154	          0.64280808	          1.07108617	         -0.26915395	          0.66307139	          0.92851651	         -0.26694572	          0.55171621	          0.45069715	         -0.06509240	          0.78426641	          0.50723410	         -0.34404972	          0.59961879	          0.50117338	         -0.13222159	          0.70400953	          0.54905158	         -0.29130664	          0.59591001	          0.41735563	         -0.14397062	          0.72046053	          0.46468705	         -0.27691427	          0.35635102	          0.22928850	         -0.07959709	          0.81579095	          0.17738427	         -0.34268323	          0.40362775	          0.25332421	         -0.13938820	          0.74816430	          0.21921746	         -0.31692380	          0.33005181	          0.04816682	         -0.19406494	          0.85427845	          0.04209502	         -0.30841222	
